<svg width="15" height="15" viewBox="0 0 15 15" fill="none" xmlns="http://www.w3.org/2000/svg">
<path d="M11.7981 7.81871C11.522 8.04317 11.1163 8.00188 10.8911 7.72638C10.6603 7.44412 10.7089 7.02689 10.9983 6.80519L12.1484 5.92428C13.2553 4.94984 13.3626 3.26263 12.3882 2.15579C11.4137 1.04894 9.72651 0.941609 8.61967 1.91605L6.39198 3.87726C5.28514 4.8517 5.17781 6.53891 6.15225 7.64575C6.50763 8.04943 6.72173 8.23744 7.05031 8.31738C7.35654 8.39189 7.60816 8.64116 7.57754 8.95483C7.57358 8.99539 7.56499 9.03537 7.55193 9.07399L7.5476 9.08679C7.4508 9.37309 7.16824 9.56269 6.87174 9.50411C6.21567 9.3745 5.76817 9.10118 5.21403 8.47174C3.78341 6.84674 3.94099 4.36966 5.56599 2.93904L7.79369 0.977831C9.41869 -0.452787 11.8958 -0.295203 13.3264 1.3298C14.757 2.9548 14.5994 5.43188 12.9744 6.86249L11.7981 7.81871Z" fill="#687684"/>
<path d="M2.50584 6.87337C2.78196 6.64888 3.18766 6.69015 3.41291 6.96563C3.6437 7.24788 3.59515 7.66512 3.30572 7.88683L2.15566 8.76782C1.04888 9.74233 0.94165 11.4295 1.91616 12.5363C2.89067 13.6431 4.57789 13.7503 5.68467 12.7758L7.91223 10.8145C9.01901 9.83996 9.12624 8.15274 8.15173 7.04596C7.79632 6.64231 7.58221 6.45431 7.25362 6.37439C6.94739 6.2999 6.69575 6.05065 6.72636 5.73698C6.73031 5.69641 6.7389 5.65643 6.75195 5.61782L6.75628 5.60502C6.85306 5.31871 7.13562 5.12909 7.43212 5.18765C8.0882 5.31723 8.53571 5.59052 9.08989 6.21992C10.5206 7.84483 10.3632 10.3219 8.73828 11.7526L6.51071 13.714C4.8858 15.1447 2.40872 14.9873 0.977996 13.3624C-0.452725 11.7375 -0.295301 9.26037 1.32961 7.82965L2.50584 6.87337Z" fill="#687684"/>
</svg>
