<svg width="10" height="12" viewBox="0 0 10 12" fill="none" xmlns="http://www.w3.org/2000/svg">
<path d="M1.89111 0C1.54811 0 1.37633 0.414699 1.61887 0.657235L2.49196 1.53033V4.67431L2.32382 4.7864C1.51366 5.32651 0.818471 6.0217 0.278364 6.83186L0.065309 7.15144C-0.105267 7.4073 0.078163 7.75 0.385648 7.75H3.10709L4.50648 11.4817C4.63141 11.8148 5.10255 11.8148 5.22745 11.4817L6.62684 7.75H9.34828C9.65581 7.75 9.83914 7.40726 9.66862 7.15144L9.45556 6.83186C8.97541 6.11163 8.3727 5.48227 7.67561 4.97195C7.56193 4.88567 7.44551 4.80278 7.32646 4.72342L7.24196 4.66709V1.53033L8.11506 0.657236C8.32522 0.447079 8.2243 0.107722 7.97053 0.0208025L7.97426 0.0170711C7.98056 0.0107714 7.9761 0 7.96719 0H1.89111Z" fill="#687684"/>
</svg>
