<svg width="15" height="22" viewBox="0 0 15 22" fill="none" xmlns="http://www.w3.org/2000/svg">
<path fill-rule="evenodd" clip-rule="evenodd" d="M1.58518 0.422019C1.62355 0.178993 1.83302 0 2.07906 0H9.60193C9.92025 0 10.1575 0.293509 10.0908 0.604765L8.72042 7H13.8264C14.2504 7 14.4819 7.49443 14.2106 7.82009L3.28846 20.9266C2.96343 21.3166 2.33128 21.03 2.41047 20.5285L3.91497 11H0.500112C0.192871 11 -0.0416872 10.7255 0.00623093 10.422L1.58518 0.422019ZM2.93355 1.5L1.6704 9.5H5.08525C5.3925 9.5 5.62705 9.7745 5.57914 10.078L4.45769 17.1805L11.6914 8.5H7.48344C7.16511 8.5 6.92784 8.20649 6.99454 7.89524L8.36494 1.5H2.93355Z" fill="#687684"/>
</svg>
