<svg width="17" height="21" viewBox="0 0 17 21" fill="none" xmlns="http://www.w3.org/2000/svg">
<path fill-rule="evenodd" clip-rule="evenodd" d="M13 5.75C13 9.75 10.25 10.25 8.25 10.25C6.25 10.25 3.5 9.75 3.5 5.75C3.5 2.75 5.25 0 8.25 0C11.25 0 13 2.75 13 5.75ZM11.5 5.75C11.5 7.36336 10.9758 7.96333 10.5429 8.25192C9.98948 8.6209 9.17998 8.75 8.25 8.75C7.32002 8.75 6.51052 8.6209 5.95705 8.25192C5.52416 7.96333 5 7.36336 5 5.75C5 4.52348 5.36058 3.42089 5.94154 2.66118C6.49865 1.93264 7.26208 1.5 8.25 1.5C9.23792 1.5 10.0014 1.93264 10.5585 2.66118C11.1394 3.42089 11.5 4.52348 11.5 5.75Z" fill="#687684"/>
<path fill-rule="evenodd" clip-rule="evenodd" d="M0 18.5C0 19.6046 0.895431 20.5 2 20.5H14.5C15.6046 20.5 16.5 19.6046 16.5 18.5V18.2077C16.5 17.0123 15.9248 15.7589 14.6301 14.2598C13.3085 12.7294 11.2304 11.5 8.25 11.5C5.26965 11.5 3.19155 12.7294 1.86988 14.2598C0.575196 15.7589 0 17.0123 0 18.2077V18.5ZM3.00512 15.2402C1.9248 16.4911 1.5 17.4031 1.5 18.2077V18.4C1.5 18.7314 1.76863 19 2.1 19H14.4C14.7314 19 15 18.7314 15 18.4V18.2077C15 17.4031 14.5752 16.4911 13.4949 15.2402C12.4415 14.0206 10.7696 13 8.25 13C5.73035 13 4.05845 14.0206 3.00512 15.2402Z" fill="#687684"/>
</svg>
