<svg width="18" height="23" viewBox="0 0 18 23" fill="none" xmlns="http://www.w3.org/2000/svg">
<path d="M5.125 6.75C4.71079 6.75 4.375 7.08579 4.375 7.5C4.375 7.91421 4.71079 8.25 5.125 8.25H12.625C13.0392 8.25 13.375 7.91421 13.375 7.5C13.375 7.08579 13.0392 6.75 12.625 6.75H5.125Z" fill="#687684"/>
<path d="M4.375 10.5C4.375 10.0858 4.71079 9.75 5.125 9.75H9.625C10.0392 9.75 10.375 10.0858 10.375 10.5C10.375 10.9142 10.0392 11.25 9.625 11.25H5.125C4.71079 11.25 4.375 10.9142 4.375 10.5Z" fill="#687684"/>
<path fill-rule="evenodd" clip-rule="evenodd" d="M3.78528 16.1455C5.07138 17.0459 6.56944 17.5863 8.12499 17.7183V21.5274C8.12499 22.203 8.94818 22.5341 9.41604 22.0468C9.48697 21.9729 9.56441 21.8925 9.64775 21.8059L9.65039 21.8032C10.6405 20.775 12.4602 18.8855 14.1089 16.7917C15.0036 15.6554 15.8612 14.4426 16.513 13.2594C17.1575 12.0895 17.6384 10.8825 17.7057 9.77194L17.7046 9.77187C17.8672 8.17118 17.5918 6.55215 16.9024 5.09C16.1266 3.44452 14.8638 2.07721 13.285 1.17323C11.7063 0.269253 9.88789 -0.127729 8.07605 0.0360419C6.26421 0.199813 4.54647 0.916426 3.15542 2.08884C1.76437 3.26126 0.76722 4.83284 0.298992 6.59078C-0.169236 8.34872 -0.0859205 10.2081 0.537657 11.9171C1.16123 13.6261 2.29495 15.1022 3.78528 16.1455ZM12.5397 2.47494C11.2278 1.72375 9.7167 1.39386 8.21108 1.52995C6.70547 1.66604 5.27805 2.26154 4.12211 3.2358C2.96617 4.21006 2.13755 5.51603 1.74846 6.97685C1.35937 8.43767 1.4286 9.98277 1.94679 11.4029C2.46497 12.8231 3.40707 14.0497 4.64551 14.9167C5.88396 15.7837 7.35892 16.2491 8.87067 16.25H9.12499C9.40113 16.25 9.62499 16.4739 9.62499 16.75V19.6574C10.5899 18.6325 11.8026 17.296 12.9304 15.8637C13.7977 14.7622 14.6015 13.6205 15.1992 12.5356C15.6955 11.6348 16.0247 10.8172 16.1532 10.1212C16.4083 8.63111 16.1904 7.0971 15.5457 5.72972C14.9009 4.36235 13.8516 3.22614 12.5397 2.47494Z" fill="#687684"/>
</svg>
