<svg width="27" height="27" viewBox="0 0 27 27" fill="none" xmlns="http://www.w3.org/2000/svg">
<path fill-rule="evenodd" clip-rule="evenodd" d="M19.75 14.5C19.75 17.9518 16.9518 20.75 13.5 20.75C10.0482 20.75 7.25 17.9518 7.25 14.5C7.25 11.0482 10.0482 8.25 13.5 8.25C16.9518 8.25 19.75 11.0482 19.75 14.5ZM18.25 14.5C18.25 17.1234 16.1234 19.25 13.5 19.25C10.8766 19.25 8.75 17.1234 8.75 14.5C8.75 11.8766 10.8766 9.75 13.5 9.75C16.1234 9.75 18.25 11.8766 18.25 14.5Z" fill="#4C9EEB"/>
<path fill-rule="evenodd" clip-rule="evenodd" d="M13.25 0C16.4304 0 19.2328 1.61857 20.8784 4.07692H24.4615C25.5873 4.07692 26.5 4.98957 26.5 6.11538V24.4615C26.5 25.5873 25.5873 26.5 24.4615 26.5H2.03846C0.912651 26.5 0 25.5873 0 24.4615V6.11538C0 4.98957 0.912651 4.07692 2.03846 4.07692H5.62162C7.26719 1.61857 10.0696 0 13.25 0ZM6.42258 5.57692L6.86813 4.91131C8.24714 2.85117 10.5911 1.5 13.25 1.5C15.9089 1.5 18.2529 2.85117 19.6319 4.91131L20.0774 5.57692H24.4615C24.7589 5.57692 25 5.818 25 6.11538V24.4615C25 24.7589 24.7589 25 24.4615 25H2.03846C1.74108 25 1.5 24.7589 1.5 24.4615V6.11538C1.5 5.818 1.74108 5.57692 2.03846 5.57692H6.42258Z" fill="#4C9EEB"/>
</svg>
