<svg width="23" height="22" viewBox="0 0 23 22" fill="none" xmlns="http://www.w3.org/2000/svg">
<path d="M2 3.75H12.25C12.3881 3.75 12.5 3.86193 12.5 4C12.5 4.13807 12.3881 4.25 12.25 4.25H2C1.44771 4.25 1 4.69772 1 5.25V6.08789L1.21973 6.2373L9.93164 12.1367C10.2796 12.3723 10.7376 12.3653 11.0781 12.1191L15.1035 9.20996C15.2688 9.09046 15.5 9.20813 15.5 9.41211C15.5 9.49225 15.4614 9.56724 15.3965 9.61426L11.3711 12.5244C10.8603 12.8937 10.1732 12.9041 9.65137 12.5508L1.78027 7.2207L1 6.69238V19.25C1 19.8023 1.44772 20.25 2 20.25H18C18.5523 20.25 19 19.8023 19 19.25V11C19 10.8619 19.1119 10.75 19.25 10.75C19.3881 10.75 19.5 10.8619 19.5 11V19.25C19.5 20.0784 18.8284 20.75 18 20.75H2C1.17157 20.75 0.5 20.0784 0.5 19.25V5.25C0.5 4.42157 1.17157 3.75 2 3.75ZM19 0.5C19.1381 0.5 19.25 0.611929 19.25 0.75V3.75H22.25C22.3881 3.75 22.5 3.86193 22.5 4C22.5 4.13807 22.3881 4.25 22.25 4.25H19.25V7.25C19.25 7.38807 19.1381 7.5 19 7.5C18.8619 7.5 18.75 7.38807 18.75 7.25V4.25H15.75C15.6119 4.25 15.5 4.13807 15.5 4C15.5 3.86193 15.6119 3.75 15.75 3.75H18.75V0.75C18.75 0.611929 18.8619 0.5 19 0.5Z" fill="white" stroke="white"/>
</svg>
