<svg width="23" height="23" viewBox="0 0 23 23" fill="none" xmlns="http://www.w3.org/2000/svg">
<path d="M10.5903 0.326459C10.7514 -0.10885 11.3671 -0.108852 11.5281 0.326457L14.2205 7.60249C14.2711 7.73935 14.3791 7.84726 14.5159 7.8979L21.792 10.5903C22.2273 10.7514 22.2273 11.3671 21.792 11.5281L14.5159 14.2205C14.3791 14.2711 14.2711 14.3791 14.2205 14.5159L11.5281 21.792C11.3671 22.2273 10.7514 22.2273 10.5903 21.792L7.8979 14.5159C7.84726 14.3791 7.73935 14.2711 7.60249 14.2205L0.326459 11.5281C-0.10885 11.3671 -0.108852 10.7514 0.326457 10.5903L7.60249 7.8979C7.73935 7.84726 7.84726 7.73935 7.8979 7.60249L10.5903 0.326459Z" fill="#724DBD"/>
</svg>
