<svg width="21" height="21" viewBox="0 0 21 21" fill="none" xmlns="http://www.w3.org/2000/svg">
<path fill-rule="evenodd" clip-rule="evenodd" d="M12.3271 0.805457C13.4011 -0.268485 15.1423 -0.268486 16.2162 0.805456L19.3878 3.97703C20.4617 5.05097 20.4617 6.79217 19.3878 7.86612L7.86739 19.3865C7.6986 19.5553 7.47499 19.6581 7.23698 19.6765L0.538384 20.1917C0.232664 20.2153 -0.0220083 19.9606 0.00150863 19.6549L0.516785 12.9563C0.535094 12.7183 0.637939 12.4946 0.806733 12.3258L12.3271 0.805457ZM15.1556 1.86612C14.6674 1.37796 13.8759 1.37796 13.3878 1.86612L12.3323 2.92157L17.2717 7.86091L18.3271 6.80546C18.8153 6.3173 18.8153 5.52584 18.3271 5.03769L15.1556 1.86612ZM16.211 8.92157L11.2717 3.98223L3.03944 12.2145C2.64891 12.605 2.64891 13.2382 3.03944 13.6287L6.56456 17.1538C6.95509 17.5443 7.58825 17.5443 7.97878 17.1538L16.211 8.92157ZM5.58828 18.2988L1.89439 14.605L1.63131 18.0251C1.60779 18.3308 1.86246 18.5854 2.16818 18.5619L5.58828 18.2988Z" fill="#687684"/>
</svg>
